<mxfile host="app.diagrams.net" modified="2023-05-18T00:25:09.248Z" agent="Mozilla/5.0 (Windows NT 10.0; Win64; x64) AppleWebKit/537.36 (KHTML, like Gecko) Chrome/113.0.0.0 Safari/537.36" etag="EttiLDmDhvORUpgKEloU" version="21.3.2" type="device">
  <diagram name="페이지-1" id="CnXpa03zaR94KosKpgwv">
    <mxGraphModel dx="4097" dy="2160" grid="1" gridSize="10" guides="1" tooltips="1" connect="1" arrows="1" fold="1" page="1" pageScale="1" pageWidth="4681" pageHeight="3300" math="0" shadow="0">
      <root>
        <mxCell id="0" />
        <mxCell id="1" parent="0" />
        <mxCell id="EBDidCzEkcWg11ysb4Zm-15" style="rounded=0;orthogonalLoop=1;jettySize=auto;html=1;exitX=0.5;exitY=1;exitDx=0;exitDy=0;" parent="1" source="EBDidCzEkcWg11ysb4Zm-1" target="EBDidCzEkcWg11ysb4Zm-8" edge="1">
          <mxGeometry relative="1" as="geometry" />
        </mxCell>
        <mxCell id="EBDidCzEkcWg11ysb4Zm-16" style="rounded=0;orthogonalLoop=1;jettySize=auto;html=1;exitX=0.5;exitY=1;exitDx=0;exitDy=0;exitPerimeter=0;" parent="1" source="EBDidCzEkcWg11ysb4Zm-1" target="EBDidCzEkcWg11ysb4Zm-10" edge="1">
          <mxGeometry relative="1" as="geometry">
            <mxPoint x="590" y="570" as="sourcePoint" />
          </mxGeometry>
        </mxCell>
        <mxCell id="EBDidCzEkcWg11ysb4Zm-17" style="rounded=0;orthogonalLoop=1;jettySize=auto;html=1;exitX=0.5;exitY=1;exitDx=0;exitDy=0;" parent="1" source="EBDidCzEkcWg11ysb4Zm-1" target="EBDidCzEkcWg11ysb4Zm-11" edge="1">
          <mxGeometry relative="1" as="geometry" />
        </mxCell>
        <mxCell id="EBDidCzEkcWg11ysb4Zm-18" style="rounded=0;orthogonalLoop=1;jettySize=auto;html=1;exitX=0.5;exitY=1;exitDx=0;exitDy=0;entryX=0.435;entryY=0.009;entryDx=0;entryDy=0;entryPerimeter=0;" parent="1" source="EBDidCzEkcWg11ysb4Zm-1" target="EBDidCzEkcWg11ysb4Zm-12" edge="1">
          <mxGeometry relative="1" as="geometry">
            <mxPoint x="920" y="780" as="targetPoint" />
          </mxGeometry>
        </mxCell>
        <mxCell id="EBDidCzEkcWg11ysb4Zm-19" style="rounded=0;orthogonalLoop=1;jettySize=auto;html=1;entryX=0.5;entryY=0;entryDx=0;entryDy=0;exitX=0.5;exitY=1;exitDx=0;exitDy=0;" parent="1" source="EBDidCzEkcWg11ysb4Zm-1" target="EBDidCzEkcWg11ysb4Zm-13" edge="1">
          <mxGeometry relative="1" as="geometry" />
        </mxCell>
        <mxCell id="EBDidCzEkcWg11ysb4Zm-21" style="rounded=0;orthogonalLoop=1;jettySize=auto;html=1;entryX=0.5;entryY=0;entryDx=0;entryDy=0;exitX=0.469;exitY=1.025;exitDx=0;exitDy=0;exitPerimeter=0;" parent="1" source="EBDidCzEkcWg11ysb4Zm-1" target="EBDidCzEkcWg11ysb4Zm-2" edge="1">
          <mxGeometry relative="1" as="geometry" />
        </mxCell>
        <mxCell id="EBDidCzEkcWg11ysb4Zm-1" value="고객정보" style="rounded=1;arcSize=10;whiteSpace=wrap;html=1;align=center;fontSize=24;" parent="1" vertex="1">
          <mxGeometry x="490" y="280" width="260" height="100" as="geometry" />
        </mxCell>
        <mxCell id="EBDidCzEkcWg11ysb4Zm-2" value="고객 ID" style="ellipse;whiteSpace=wrap;html=1;align=center;fontStyle=4;" parent="1" vertex="1">
          <mxGeometry x="20" y="770" width="200" height="120" as="geometry" />
        </mxCell>
        <mxCell id="EBDidCzEkcWg11ysb4Zm-8" value="고객이름&amp;nbsp;" style="ellipse;whiteSpace=wrap;html=1;align=center;" parent="1" vertex="1">
          <mxGeometry x="220" y="770" width="200" height="120" as="geometry" />
        </mxCell>
        <mxCell id="EBDidCzEkcWg11ysb4Zm-10" value="전화번호" style="ellipse;whiteSpace=wrap;html=1;align=center;" parent="1" vertex="1">
          <mxGeometry x="420" y="770" width="210" height="120" as="geometry" />
        </mxCell>
        <mxCell id="EBDidCzEkcWg11ysb4Zm-11" value="주소" style="ellipse;whiteSpace=wrap;html=1;align=center;" parent="1" vertex="1">
          <mxGeometry x="640" y="770" width="190" height="120" as="geometry" />
        </mxCell>
        <mxCell id="EBDidCzEkcWg11ysb4Zm-12" value="생년월일" style="ellipse;whiteSpace=wrap;html=1;align=center;" parent="1" vertex="1">
          <mxGeometry x="840" y="770" width="180" height="120" as="geometry" />
        </mxCell>
        <mxCell id="EBDidCzEkcWg11ysb4Zm-13" value="직업" style="ellipse;whiteSpace=wrap;html=1;align=center;" parent="1" vertex="1">
          <mxGeometry x="1020" y="775" width="200" height="110" as="geometry" />
        </mxCell>
        <mxCell id="EBDidCzEkcWg11ysb4Zm-25" value="입출일자" style="ellipse;whiteSpace=wrap;html=1;align=center;" parent="1" vertex="1">
          <mxGeometry x="1270" y="780" width="200" height="110" as="geometry" />
        </mxCell>
        <mxCell id="EBDidCzEkcWg11ysb4Zm-26" value="입출시각" style="ellipse;whiteSpace=wrap;html=1;align=center;" parent="1" vertex="1">
          <mxGeometry x="1480" y="780" width="200" height="110" as="geometry" />
        </mxCell>
        <mxCell id="EBDidCzEkcWg11ysb4Zm-27" value="입출구분" style="ellipse;whiteSpace=wrap;html=1;align=center;" parent="1" vertex="1">
          <mxGeometry x="1690" y="775" width="200" height="110" as="geometry" />
        </mxCell>
        <mxCell id="EBDidCzEkcWg11ysb4Zm-28" value="출금" style="ellipse;whiteSpace=wrap;html=1;align=center;" parent="1" vertex="1">
          <mxGeometry x="2090.0000000000005" y="780" width="200" height="110" as="geometry" />
        </mxCell>
        <mxCell id="EBDidCzEkcWg11ysb4Zm-29" value="입금" style="ellipse;whiteSpace=wrap;html=1;align=center;" parent="1" vertex="1">
          <mxGeometry x="1900.0000000000002" y="775" width="200" height="110" as="geometry" />
        </mxCell>
        <mxCell id="EBDidCzEkcWg11ysb4Zm-31" style="rounded=0;orthogonalLoop=1;jettySize=auto;html=1;exitX=0.5;exitY=1;exitDx=0;exitDy=0;" parent="1" source="ttljiK-qB7Gj7tMOoy-n-1" target="EBDidCzEkcWg11ysb4Zm-25" edge="1">
          <mxGeometry relative="1" as="geometry">
            <mxPoint x="1901.2200000000003" y="610" as="sourcePoint" />
            <mxPoint x="1442.22" y="771" as="targetPoint" />
          </mxGeometry>
        </mxCell>
        <mxCell id="EBDidCzEkcWg11ysb4Zm-32" style="rounded=0;orthogonalLoop=1;jettySize=auto;html=1;entryX=0.5;entryY=0;entryDx=0;entryDy=0;exitX=0.5;exitY=1;exitDx=0;exitDy=0;" parent="1" source="ttljiK-qB7Gj7tMOoy-n-1" target="EBDidCzEkcWg11ysb4Zm-26" edge="1">
          <mxGeometry relative="1" as="geometry">
            <mxPoint x="1901.2200000000003" y="610" as="sourcePoint" />
            <mxPoint x="1651.22" y="771" as="targetPoint" />
          </mxGeometry>
        </mxCell>
        <mxCell id="EBDidCzEkcWg11ysb4Zm-33" style="rounded=0;orthogonalLoop=1;jettySize=auto;html=1;entryX=0.5;entryY=0;entryDx=0;entryDy=0;exitX=0.5;exitY=1;exitDx=0;exitDy=0;" parent="1" source="ttljiK-qB7Gj7tMOoy-n-1" target="EBDidCzEkcWg11ysb4Zm-27" edge="1">
          <mxGeometry relative="1" as="geometry">
            <mxPoint x="1901.2200000000003" y="610" as="sourcePoint" />
            <mxPoint x="1801.22" y="760" as="targetPoint" />
          </mxGeometry>
        </mxCell>
        <mxCell id="EBDidCzEkcWg11ysb4Zm-34" style="rounded=0;orthogonalLoop=1;jettySize=auto;html=1;entryX=0.5;entryY=0;entryDx=0;entryDy=0;entryPerimeter=0;exitX=0.5;exitY=1;exitDx=0;exitDy=0;" parent="1" source="ttljiK-qB7Gj7tMOoy-n-1" target="EBDidCzEkcWg11ysb4Zm-29" edge="1">
          <mxGeometry relative="1" as="geometry">
            <mxPoint x="1901.2200000000003" y="610" as="sourcePoint" />
            <mxPoint x="2001.22" y="760" as="targetPoint" />
          </mxGeometry>
        </mxCell>
        <mxCell id="EBDidCzEkcWg11ysb4Zm-35" style="rounded=0;orthogonalLoop=1;jettySize=auto;html=1;exitX=0.5;exitY=1;exitDx=0;exitDy=0;entryX=0.5;entryY=0;entryDx=0;entryDy=0;" parent="1" source="ttljiK-qB7Gj7tMOoy-n-1" target="EBDidCzEkcWg11ysb4Zm-28" edge="1">
          <mxGeometry relative="1" as="geometry">
            <mxPoint x="1901.2200000000003" y="610" as="sourcePoint" />
            <mxPoint x="2188.2200000000003" y="756" as="targetPoint" />
          </mxGeometry>
        </mxCell>
        <mxCell id="EBDidCzEkcWg11ysb4Zm-36" value="" style="rounded=0;orthogonalLoop=1;jettySize=auto;html=1;exitX=0.5;exitY=1;exitDx=0;exitDy=0;" parent="1" source="ttljiK-qB7Gj7tMOoy-n-2" target="EBDidCzEkcWg11ysb4Zm-24" edge="1">
          <mxGeometry relative="1" as="geometry">
            <mxPoint x="2690" y="470" as="sourcePoint" />
            <mxPoint x="1459.9958563449616" y="801.1208729705236" as="targetPoint" />
          </mxGeometry>
        </mxCell>
        <mxCell id="EBDidCzEkcWg11ysb4Zm-24" value="계좌번호" style="ellipse;whiteSpace=wrap;html=1;align=center;fontStyle=4;" parent="1" vertex="1">
          <mxGeometry x="2400" y="770" width="200" height="110" as="geometry" />
        </mxCell>
        <mxCell id="ttljiK-qB7Gj7tMOoy-n-1" value="거래내역" style="shape=rhombus;perimeter=rhombusPerimeter;whiteSpace=wrap;html=1;align=center;fontSize=34;" vertex="1" parent="1">
          <mxGeometry x="1570.0000000000002" y="60" width="380" height="270" as="geometry" />
        </mxCell>
        <mxCell id="ttljiK-qB7Gj7tMOoy-n-2" value="계좌정보&lt;br&gt;" style="rounded=1;arcSize=10;whiteSpace=wrap;html=1;align=center;fontSize=24;" vertex="1" parent="1">
          <mxGeometry x="2710.0000000000005" y="260" width="260" height="100" as="geometry" />
        </mxCell>
        <mxCell id="ttljiK-qB7Gj7tMOoy-n-3" value="" style="edgeStyle=entityRelationEdgeStyle;fontSize=12;html=1;endArrow=ERoneToMany;rounded=0;entryX=0;entryY=0.5;entryDx=0;entryDy=0;exitX=0.5;exitY=0;exitDx=0;exitDy=0;" edge="1" parent="1" source="EBDidCzEkcWg11ysb4Zm-1" target="ttljiK-qB7Gj7tMOoy-n-1">
          <mxGeometry width="100" height="100" relative="1" as="geometry">
            <mxPoint x="1290" y="740" as="sourcePoint" />
            <mxPoint x="1390" y="640" as="targetPoint" />
          </mxGeometry>
        </mxCell>
        <mxCell id="ttljiK-qB7Gj7tMOoy-n-4" value="" style="edgeStyle=entityRelationEdgeStyle;fontSize=12;html=1;endArrow=ERoneToMany;rounded=0;entryX=1;entryY=0.5;entryDx=0;entryDy=0;exitX=0.5;exitY=0;exitDx=0;exitDy=0;" edge="1" parent="1" source="ttljiK-qB7Gj7tMOoy-n-2" target="ttljiK-qB7Gj7tMOoy-n-1">
          <mxGeometry width="100" height="100" relative="1" as="geometry">
            <mxPoint x="1360" y="472.5" as="sourcePoint" />
            <mxPoint x="2090" y="277.5" as="targetPoint" />
          </mxGeometry>
        </mxCell>
        <mxCell id="ttljiK-qB7Gj7tMOoy-n-5" value="계좌구분&lt;br&gt;" style="ellipse;whiteSpace=wrap;html=1;align=center;" vertex="1" parent="1">
          <mxGeometry x="2620.0000000000005" y="770" width="200" height="110" as="geometry" />
        </mxCell>
        <mxCell id="ttljiK-qB7Gj7tMOoy-n-6" value="고객ID&lt;br&gt;" style="ellipse;whiteSpace=wrap;html=1;align=center;" vertex="1" parent="1">
          <mxGeometry x="2850.0000000000005" y="770" width="200" height="110" as="geometry" />
        </mxCell>
        <mxCell id="ttljiK-qB7Gj7tMOoy-n-7" value="보유잔액&lt;br&gt;" style="ellipse;whiteSpace=wrap;html=1;align=center;" vertex="1" parent="1">
          <mxGeometry x="3070.0000000000005" y="770" width="200" height="110" as="geometry" />
        </mxCell>
        <mxCell id="ttljiK-qB7Gj7tMOoy-n-8" value="" style="rounded=0;orthogonalLoop=1;jettySize=auto;html=1;exitX=0.5;exitY=1;exitDx=0;exitDy=0;entryX=0.38;entryY=0;entryDx=0;entryDy=0;entryPerimeter=0;" edge="1" parent="1" source="ttljiK-qB7Gj7tMOoy-n-2" target="ttljiK-qB7Gj7tMOoy-n-5">
          <mxGeometry relative="1" as="geometry">
            <mxPoint x="2712" y="440" as="sourcePoint" />
            <mxPoint x="2560" y="752" as="targetPoint" />
          </mxGeometry>
        </mxCell>
        <mxCell id="ttljiK-qB7Gj7tMOoy-n-9" value="" style="rounded=0;orthogonalLoop=1;jettySize=auto;html=1;exitX=0.5;exitY=1;exitDx=0;exitDy=0;" edge="1" parent="1" source="ttljiK-qB7Gj7tMOoy-n-2" target="ttljiK-qB7Gj7tMOoy-n-6">
          <mxGeometry relative="1" as="geometry">
            <mxPoint x="2698" y="480" as="sourcePoint" />
            <mxPoint x="2546" y="792" as="targetPoint" />
          </mxGeometry>
        </mxCell>
        <mxCell id="ttljiK-qB7Gj7tMOoy-n-10" value="" style="rounded=0;orthogonalLoop=1;jettySize=auto;html=1;entryX=0.39;entryY=0.036;entryDx=0;entryDy=0;entryPerimeter=0;exitX=0.5;exitY=1;exitDx=0;exitDy=0;" edge="1" parent="1" source="ttljiK-qB7Gj7tMOoy-n-2" target="ttljiK-qB7Gj7tMOoy-n-7">
          <mxGeometry relative="1" as="geometry">
            <mxPoint x="2708" y="490" as="sourcePoint" />
            <mxPoint x="2556" y="802" as="targetPoint" />
          </mxGeometry>
        </mxCell>
      </root>
    </mxGraphModel>
  </diagram>
</mxfile>
